<svg width="175" height="52" viewBox="0 0 175 52" fill="none" xmlns="http://www.w3.org/2000/svg">
<path d="M57.4609 19.3906L45.8143 39.5558L36.8591 39.5551L48.5057 19.3899L57.4609 19.3906Z" fill="#1C64F2"/>
<path d="M57.7422 18.8691L57.1539 19.8877L48.2249 19.887L48.8132 18.8684L57.7422 18.8691Z" fill="#1C64F2"/>
<path d="M75.6641 18.8711L75.0758 19.8897L66.3121 19.8889L66.9004 18.8704L75.6641 18.8711Z" fill="#1C64F2"/>
<rect width="23.2869" height="8.95525" transform="matrix(-0.500137 0.865946 -1 -8.2596e-05 75.375 19.3906)" fill="#1C64F2"/>
<rect width="8.9565" height="26.8658" transform="matrix(-0.500137 0.865946 -1 -8.2596e-05 79.8516 11.6367)" fill="#1C64F2"/>
<path d="M86.1953 19.3867L74.5487 39.5519L65.5934 39.5512L77.2401 19.386L86.1953 19.3867Z" fill="#1C64F2"/>
<path d="M87.0703 17.8516L75.4237 38.0168L66.4684 38.016L78.1151 17.8508L87.0703 17.8516Z" fill="#1C64F2"/>
<rect width="23.2869" height="8.95525" transform="matrix(-0.500137 0.865946 -1 -8.2596e-05 104.047 19.3867)" fill="#1C64F2"/>
<rect width="23.2869" height="8.95525" transform="matrix(-0.500137 0.865946 -1 -8.2596e-05 105.117 17.3301)" fill="#1C64F2"/>
<rect width="8.9565" height="26.8078" transform="matrix(-0.500137 0.865946 -1 -8.2596e-05 108.523 11.6328)" fill="#1C64F2"/>
<rect width="8.9565" height="26.8109" transform="matrix(-0.500137 0.865946 -1 -8.2596e-05 96.8828 31.7988)" fill="#1C64F2"/>
<path d="M116.375 16.916L103.299 39.5562L94.3437 39.5554L107.42 16.9153L116.375 16.916Z" fill="#1C64F2"/>
<rect width="11.6541" height="8.99967" transform="matrix(-0.500137 0.865946 -1 -8.2596e-05 134.023 17.3496)" fill="#1C64F2"/>
<rect width="8.9565" height="26.8658" transform="matrix(-0.500137 0.865946 -1 -8.2596e-05 137.336 11.6367)" fill="#1C64F2"/>
<rect width="8.9565" height="26.8658" transform="matrix(-0.500137 0.865946 -1 -8.2596e-05 129.273 25.5977)" fill="#1C64F2"/>
<path d="M154.344 16.4258L140.985 39.5554L132.03 39.5546L145.388 16.425L154.344 16.4258Z" fill="#1C64F2"/>
<rect width="8.9565" height="26.8658" transform="matrix(-0.500137 0.865946 -1 -8.2596e-05 166.062 11.6348)" fill="#1C64F2"/>
<rect width="17.9117" height="8.95587" transform="matrix(1 -3.7683e-05 -0.500033 0.866007 21.5547 31.8301)" fill="#1C64F2"/>
<rect width="17.9117" height="8.95587" transform="matrix(1 -3.7683e-05 -0.500033 0.866007 18.9219 31.8301)" fill="#1C64F2"/>
<rect width="17.9117" height="8.95587" transform="matrix(1 -3.7683e-05 -0.500033 0.866007 33.1953 11.666)" fill="#1C64F2"/>
<rect width="17.9117" height="8.95587" transform="matrix(1 -3.7683e-05 -0.500033 0.866007 31.0078 11.666)" fill="#1C64F2"/>
<rect width="8.95587" height="32.2411" transform="matrix(1 -3.7683e-05 -0.500033 0.866007 24.2422 11.666)" fill="#1C64F2"/>
</svg>
